<svg xmlns="http://www.w3.org/2000/svg" xmlns:xlink="http://www.w3.org/1999/xlink" width="466" zoomAndPan="magnify" viewBox="0 0 349.5 129.000003" height="172" preserveAspectRatio="xMidYMid meet" version="1.0"><defs><g/><clipPath id="ecf4c2489b"><path d="M 195 53 L 217 53 L 217 69 L 195 69 Z M 195 53 " clip-rule="nonzero"/></clipPath><clipPath id="4f9e9ace1f"><path d="M 195.578125 57.9375 L 213.707031 53.539062 L 216.195312 63.804688 L 198.066406 68.199219 Z M 195.578125 57.9375 " clip-rule="nonzero"/></clipPath><clipPath id="9c7be47954"><path d="M 0.429688 0.347656 L 21.386719 0.347656 L 21.386719 15.351562 L 0.429688 15.351562 Z M 0.429688 0.347656 " clip-rule="nonzero"/></clipPath><clipPath id="737e3f5658"><path d="M 0.578125 4.9375 L 18.707031 0.539062 L 21.195312 10.804688 L 3.066406 15.199219 Z M 0.578125 4.9375 " clip-rule="nonzero"/></clipPath><clipPath id="c4377c6634"><rect x="0" width="22" y="0" height="16"/></clipPath></defs><g fill="#ffffff" fill-opacity="1"><g transform="translate(181.823344, 71.450128)"><g><path d="M 20.828125 -42.046875 C 16.953125 -41.097656 14.207031 -39.425781 12.59375 -37.03125 C 10.988281 -34.644531 10.035156 -31.632812 9.734375 -28 C 12.347656 -28 14.363281 -28 15.78125 -28 C 17.207031 -28 18.222656 -28 18.828125 -28 C 19.441406 -28 19.8125 -27.988281 19.9375 -27.96875 C 20.070312 -27.945312 20.140625 -27.9375 20.140625 -27.9375 L 20.140625 -19.796875 C 19.992188 -19.765625 19.367188 -19.726562 18.265625 -19.6875 C 17.160156 -19.644531 15.835938 -19.613281 14.296875 -19.59375 C 12.765625 -19.582031 11.242188 -19.578125 9.734375 -19.578125 C 9.765625 -19.085938 9.800781 -18.59375 9.84375 -18.09375 C 9.882812 -17.601562 9.921875 -17.09375 9.953125 -16.5625 C 10.148438 -14.476562 10.484375 -12.160156 10.953125 -9.609375 C 11.429688 -7.066406 12.03125 -4.582031 12.75 -2.15625 C 13.46875 0.269531 14.242188 2.410156 15.078125 4.265625 L 4.953125 4.265625 C 4.421875 2.972656 3.90625 1.445312 3.40625 -0.3125 C 2.914062 -2.070312 2.476562 -3.929688 2.09375 -5.890625 C 1.71875 -7.847656 1.394531 -9.753906 1.125 -11.609375 C 0.863281 -13.460938 0.675781 -15.128906 0.5625 -16.609375 C 0.144531 -21.921875 0.164062 -26.832031 0.625 -31.34375 C 1.082031 -35.863281 2.078125 -39.867188 3.609375 -43.359375 C 5.148438 -46.847656 7.332031 -49.691406 10.15625 -51.890625 C 12.976562 -54.097656 16.535156 -55.523438 20.828125 -56.171875 Z M 20.828125 -42.046875 "/></g></g></g><g fill="#ffffff" fill-opacity="1"><g transform="translate(202.652538, 71.450128)"><g><path d="M 35.6875 -36.484375 C 35.6875 -34.992188 35.398438 -33.234375 34.828125 -31.203125 C 34.253906 -29.179688 33.390625 -27.050781 32.234375 -24.8125 C 31.078125 -22.570312 29.578125 -20.367188 27.734375 -18.203125 C 25.898438 -16.046875 23.726562 -14.035156 21.21875 -12.171875 C 18.71875 -10.316406 15.84375 -8.769531 12.59375 -7.53125 C 9.351562 -6.300781 5.722656 -5.535156 1.703125 -5.234375 L 1.703125 -15.359375 C 4.210938 -15.585938 6.453125 -15.988281 8.421875 -16.5625 C 8.078125 -18 7.789062 -19.632812 7.5625 -21.46875 C 7.34375 -23.3125 7.234375 -25.640625 7.234375 -28.453125 C 7.234375 -31.296875 7.582031 -34.101562 8.28125 -36.875 C 8.976562 -39.644531 10 -42.148438 11.34375 -44.390625 C 12.695312 -46.628906 14.320312 -48.421875 16.21875 -49.765625 C 18.113281 -51.109375 20.257812 -51.78125 22.65625 -51.78125 C 25.613281 -51.78125 28.054688 -51.132812 29.984375 -49.84375 C 31.921875 -48.5625 33.351562 -46.769531 34.28125 -44.46875 C 35.21875 -42.175781 35.6875 -39.515625 35.6875 -36.484375 Z M 17.078125 -20.828125 C 19.234375 -22.460938 20.960938 -24.234375 22.265625 -26.140625 C 23.578125 -28.054688 24.523438 -29.953125 25.109375 -31.828125 C 25.703125 -33.710938 26 -35.335938 26 -36.703125 C 26 -40.347656 24.882812 -42.171875 22.65625 -42.171875 C 21.59375 -42.171875 20.679688 -41.695312 19.921875 -40.75 C 19.160156 -39.800781 18.53125 -38.566406 18.03125 -37.046875 C 17.539062 -35.523438 17.179688 -33.882812 16.953125 -32.125 C 16.722656 -30.363281 16.609375 -28.664062 16.609375 -27.03125 C 16.609375 -25.851562 16.644531 -24.742188 16.71875 -23.703125 C 16.800781 -22.660156 16.921875 -21.703125 17.078125 -20.828125 Z M 20.09375 -9.5625 C 21.71875 -5.957031 23.882812 -3.253906 26.59375 -1.453125 C 29.3125 0.347656 32.128906 1.457031 35.046875 1.875 L 35.046875 14.34375 C 32.847656 14.070312 30.582031 13.429688 28.25 12.421875 C 25.914062 11.421875 23.675781 10.066406 21.53125 8.359375 C 19.394531 6.648438 17.441406 4.609375 15.671875 2.234375 C 13.910156 -0.128906 12.460938 -2.804688 11.328125 -5.796875 C 12.765625 -6.109375 13.921875 -6.453125 14.796875 -6.828125 C 15.671875 -7.203125 16.492188 -7.617188 17.265625 -8.078125 C 18.046875 -8.535156 18.988281 -9.03125 20.09375 -9.5625 Z M 20.09375 -9.5625 "/></g></g></g><g fill="#ffffff" fill-opacity="1"><g transform="translate(232.245931, 71.450128)"><g><path d="M 30.046875 -12.75 C 30.046875 -10.550781 29.425781 -8.472656 28.1875 -6.515625 C 26.957031 -4.554688 25.269531 -2.96875 23.125 -1.75 C 20.988281 -0.539062 18.535156 0.078125 15.765625 0.109375 C 15.722656 0.109375 15.691406 0.0859375 15.671875 0.046875 C 15.660156 0.015625 15.65625 0 15.65625 0 C 15.613281 0 15.59375 0.015625 15.59375 0.046875 C 15.59375 0.0859375 15.59375 0.109375 15.59375 0.109375 C 13.769531 0.109375 11.992188 -0.203125 10.265625 -0.828125 C 8.546875 -1.453125 7 -2.332031 5.625 -3.46875 C 4.257812 -4.601562 3.171875 -5.957031 2.359375 -7.53125 C 1.546875 -9.113281 1.140625 -10.851562 1.140625 -12.75 C 1.140625 -15.019531 1.765625 -17.113281 3.015625 -19.03125 C 4.265625 -20.945312 5.976562 -22.484375 8.15625 -23.640625 C 10.34375 -24.796875 12.820312 -25.375 15.59375 -25.375 L 15.65625 -25.375 C 15.65625 -25.375 15.671875 -25.375 15.703125 -25.375 C 15.742188 -25.375 15.765625 -25.375 15.765625 -25.375 C 18.378906 -25.375 20.765625 -24.820312 22.921875 -23.71875 C 25.085938 -22.625 26.816406 -21.128906 28.109375 -19.234375 C 29.398438 -17.335938 30.046875 -15.175781 30.046875 -12.75 Z M 15.65625 -8.078125 C 17.320312 -8.078125 18.628906 -8.503906 19.578125 -9.359375 C 20.523438 -10.210938 21.019531 -11.34375 21.0625 -12.75 C 21.0625 -14.070312 20.578125 -15.148438 19.609375 -15.984375 C 18.640625 -16.828125 17.320312 -17.25 15.65625 -17.25 C 13.976562 -17.25 12.644531 -16.828125 11.65625 -15.984375 C 10.675781 -15.148438 10.1875 -14.070312 10.1875 -12.75 C 10.1875 -11.382812 10.675781 -10.265625 11.65625 -9.390625 C 12.644531 -8.515625 13.976562 -8.078125 15.65625 -8.078125 Z M 15.65625 -8.078125 "/></g></g></g><g fill="#ffffff" fill-opacity="1"><g transform="translate(263.888094, 71.450128)"><g><path d="M 52.8125 -32.4375 L 47.171875 -31.015625 C 48.160156 -28.242188 48.820312 -25.320312 49.15625 -22.25 C 49.5 -19.175781 49.507812 -16.148438 49.1875 -13.171875 C 48.875 -10.191406 48.210938 -7.445312 47.203125 -4.9375 C 46.203125 -2.4375 44.851562 -0.351562 43.15625 1.3125 C 41.46875 2.976562 39.453125 4.019531 37.109375 4.4375 C 34.597656 3.90625 32.421875 2.773438 30.578125 1.046875 C 28.742188 -0.671875 27.109375 -2.5 25.671875 -4.4375 C 25.097656 -2.351562 24.097656 -0.457031 22.671875 1.25 C 21.253906 2.957031 19.425781 4.019531 17.1875 4.4375 C 14.257812 3.789062 11.65625 2.625 9.375 0.9375 C 7.101562 -0.75 5.253906 -2.832031 3.828125 -5.3125 C 2.410156 -7.800781 1.53125 -10.535156 1.1875 -13.515625 C 0.851562 -16.492188 1.140625 -19.578125 2.046875 -22.765625 L 12 -22.765625 C 11.394531 -21.128906 11.101562 -19.332031 11.125 -17.375 C 11.144531 -15.425781 11.398438 -13.53125 11.890625 -11.6875 C 12.390625 -9.851562 13.09375 -8.242188 14 -6.859375 C 14.90625 -5.472656 15.945312 -4.535156 17.125 -4.046875 C 18.71875 -5.140625 19.742188 -6.832031 20.203125 -9.125 C 20.660156 -11.425781 20.925781 -14.078125 21 -17.078125 L 21.109375 -17.078125 L 29.421875 -17.921875 C 29.460938 -16.179688 29.898438 -14.457031 30.734375 -12.75 C 31.566406 -11.039062 32.585938 -9.539062 33.796875 -8.25 C 35.015625 -6.957031 36.226562 -6.046875 37.4375 -5.515625 C 38.769531 -6.429688 39.738281 -7.789062 40.34375 -9.59375 C 40.945312 -11.394531 41.25 -13.441406 41.25 -15.734375 C 41.25 -18.023438 40.972656 -20.421875 40.421875 -22.921875 C 39.878906 -25.429688 39.101562 -27.851562 38.09375 -30.1875 C 37.09375 -32.519531 35.890625 -34.597656 34.484375 -36.421875 C 36.609375 -37.097656 38.957031 -38.023438 41.53125 -39.203125 C 44.113281 -40.378906 47.226562 -41.800781 50.875 -43.46875 Z M 52.8125 -32.4375 "/></g></g></g><g clip-path="url(#ecf4c2489b)"><g clip-path="url(#4f9e9ace1f)"><g transform="matrix(1, 0, 0, 1, 195, 53)"><g clip-path="url(#c4377c6634)"><g clip-path="url(#9c7be47954)"><g clip-path="url(#737e3f5658)"><path fill="#ffffff" d="M 0.578125 4.9375 L 18.699219 0.542969 L 21.1875 10.804688 L 3.066406 15.199219 Z M 0.578125 4.9375 " fill-opacity="1" fill-rule="nonzero"/></g></g></g></g></g></g><g fill="#ffffff" fill-opacity="1"><g transform="translate(41.401458, 74.704582)"><g><path d="M 14.140625 -47.046875 L 14.140625 0 L 3.421875 0 L 3.421875 -47.046875 Z M 14.140625 -47.046875 "/></g></g></g><g fill="#ffffff" fill-opacity="1"><g transform="translate(58.965706, 74.704582)"><g><path d="M 3.421875 0 L 3.421875 -29.25 L 13.515625 -29.25 L 13.515625 -26.171875 L 13.625 -26.171875 C 16.25 -28.796875 19.046875 -30.109375 22.015625 -30.109375 C 23.460938 -30.109375 24.894531 -29.914062 26.3125 -29.53125 C 27.738281 -29.15625 29.109375 -28.566406 30.421875 -27.765625 C 31.734375 -26.972656 32.796875 -25.84375 33.609375 -24.375 C 34.429688 -22.914062 34.84375 -21.21875 34.84375 -19.28125 L 34.84375 0 L 24.75 0 L 24.75 -16.53125 C 24.75 -18.050781 24.265625 -19.378906 23.296875 -20.515625 C 22.328125 -21.660156 21.0625 -22.234375 19.5 -22.234375 C 17.976562 -22.234375 16.597656 -21.644531 15.359375 -20.46875 C 14.128906 -19.289062 13.515625 -17.976562 13.515625 -16.53125 L 13.515625 0 Z M 3.421875 0 "/></g></g></g><g fill="#ffffff" fill-opacity="1"><g transform="translate(96.660398, 74.704582)"><g><path d="M 5.125 -29.25 L 5.125 -35.46875 C 5.164062 -39.84375 6.191406 -43.34375 8.203125 -45.96875 C 10.222656 -48.59375 13.019531 -49.90625 16.59375 -49.90625 C 18.113281 -49.90625 19.566406 -49.6875 20.953125 -49.25 C 22.347656 -48.8125 23.347656 -48.363281 23.953125 -47.90625 L 24.921875 -47.28125 L 21.390625 -40.15625 C 20.472656 -40.6875 19.460938 -40.953125 18.359375 -40.953125 C 17.109375 -40.953125 16.273438 -40.519531 15.859375 -39.65625 C 15.441406 -38.800781 15.234375 -37.3125 15.234375 -35.1875 L 15.234375 -29.25 L 21.953125 -29.25 L 21.953125 -21.5625 L 15.234375 -21.5625 L 15.234375 0 L 5.125 0 L 5.125 -21.5625 L 0.90625 -21.5625 L 0.90625 -29.25 Z M 5.125 -29.25 "/></g></g></g><g fill="#ffffff" fill-opacity="1"><g transform="translate(118.045438, 74.704582)"><g><path d="M 3.421875 0 L 3.421875 -29.25 L 13.515625 -29.25 L 13.515625 -25.03125 L 13.625 -25.03125 C 13.707031 -25.1875 13.832031 -25.378906 14 -25.609375 C 14.164062 -25.835938 14.535156 -26.234375 15.109375 -26.796875 C 15.679688 -27.367188 16.289062 -27.882812 16.9375 -28.34375 C 17.582031 -28.800781 18.414062 -29.207031 19.4375 -29.5625 C 20.46875 -29.925781 21.515625 -30.109375 22.578125 -30.109375 C 23.679688 -30.109375 24.765625 -29.957031 25.828125 -29.65625 C 26.898438 -29.351562 27.679688 -29.050781 28.171875 -28.75 L 28.96875 -28.28125 L 24.75 -19.734375 C 23.5 -20.796875 21.75 -21.328125 19.5 -21.328125 C 18.28125 -21.328125 17.234375 -21.0625 16.359375 -20.53125 C 15.492188 -20 14.878906 -19.351562 14.515625 -18.59375 C 14.148438 -17.832031 13.890625 -17.1875 13.734375 -16.65625 C 13.585938 -16.125 13.515625 -15.703125 13.515625 -15.390625 L 13.515625 0 Z M 3.421875 0 "/></g></g></g><g fill="#ffffff" fill-opacity="1"><g transform="translate(142.966591, 74.704582)"><g><path d="M 5.421875 -3.609375 C 2.679688 -6.597656 1.3125 -10.257812 1.3125 -14.59375 C 1.3125 -18.925781 2.679688 -22.59375 5.421875 -25.59375 C 8.160156 -28.601562 11.640625 -30.109375 15.859375 -30.109375 C 19.734375 -30.109375 22.925781 -28.894531 25.4375 -26.46875 L 25.4375 -29.25 L 35.53125 -29.25 L 35.53125 0 L 25.546875 0 L 25.546875 -3.3125 L 25.4375 -3.3125 C 22.925781 -0.53125 19.734375 0.859375 15.859375 0.859375 C 11.640625 0.859375 8.160156 -0.628906 5.421875 -3.609375 Z M 14 -19.5625 C 12.6875 -18.269531 12.03125 -16.613281 12.03125 -14.59375 C 12.03125 -12.582031 12.65625 -10.9375 13.90625 -9.65625 C 15.164062 -8.382812 16.820312 -7.75 18.875 -7.75 C 20.851562 -7.75 22.476562 -8.394531 23.75 -9.6875 C 25.019531 -10.988281 25.65625 -12.625 25.65625 -14.59375 C 25.65625 -16.613281 25 -18.269531 23.6875 -19.5625 C 22.382812 -20.851562 20.78125 -21.5 18.875 -21.5 C 16.9375 -21.5 15.3125 -20.851562 14 -19.5625 Z M 14 -19.5625 "/></g></g></g></svg>